<mxfile host="app.diagrams.net" modified="2024-06-26T10:01:25.671Z" agent="Mozilla/5.0 (Windows NT 10.0; Win64; x64) AppleWebKit/537.36 (KHTML, like Gecko) Chrome/126.0.0.0 Safari/537.36" etag="RPQ9_8bpACATUr8WpgJI" version="24.6.2" type="device">
  <diagram name="第 1 页" id="nVtQ3RQHCm_OvmA-mPfw">
    <mxGraphModel dx="1050" dy="691" grid="1" gridSize="10" guides="1" tooltips="1" connect="1" arrows="1" fold="1" page="1" pageScale="1" pageWidth="827" pageHeight="1169" math="0" shadow="0">
      <root>
        <mxCell id="0" />
        <mxCell id="1" parent="0" />
        <mxCell id="xa73Cc4ueUzyMZoh-jQg-12" value="" style="rounded=0;whiteSpace=wrap;html=1;" vertex="1" parent="1">
          <mxGeometry x="30" y="30" width="660" height="600" as="geometry" />
        </mxCell>
        <mxCell id="xa73Cc4ueUzyMZoh-jQg-3" value="MapperProxy(class)" style="swimlane;fontStyle=1;align=center;verticalAlign=top;childLayout=stackLayout;horizontal=1;startSize=26;horizontalStack=0;resizeParent=1;resizeParentMax=0;resizeLast=0;collapsible=1;marginBottom=0;whiteSpace=wrap;html=1;" vertex="1" parent="1">
          <mxGeometry x="140" y="120" width="210" height="180" as="geometry" />
        </mxCell>
        <mxCell id="xa73Cc4ueUzyMZoh-jQg-4" value="+ sqlSession: Map&lt;div&gt;+mapperInterface:Class&amp;lt;T&amp;gt;&lt;/div&gt;" style="text;strokeColor=none;fillColor=none;align=left;verticalAlign=top;spacingLeft=4;spacingRight=4;overflow=hidden;rotatable=0;points=[[0,0.5],[1,0.5]];portConstraint=eastwest;whiteSpace=wrap;html=1;" vertex="1" parent="xa73Cc4ueUzyMZoh-jQg-3">
          <mxGeometry y="26" width="210" height="46" as="geometry" />
        </mxCell>
        <mxCell id="xa73Cc4ueUzyMZoh-jQg-5" value="" style="line;strokeWidth=1;fillColor=none;align=left;verticalAlign=middle;spacingTop=-1;spacingLeft=3;spacingRight=3;rotatable=0;labelPosition=right;points=[];portConstraint=eastwest;strokeColor=inherit;" vertex="1" parent="xa73Cc4ueUzyMZoh-jQg-3">
          <mxGeometry y="72" width="210" height="16" as="geometry" />
        </mxCell>
        <mxCell id="xa73Cc4ueUzyMZoh-jQg-6" value="+ invoke(Object,Method,Object[]): Object" style="text;strokeColor=none;fillColor=none;align=left;verticalAlign=top;spacingLeft=4;spacingRight=4;overflow=hidden;rotatable=0;points=[[0,0.5],[1,0.5]];portConstraint=eastwest;whiteSpace=wrap;html=1;" vertex="1" parent="xa73Cc4ueUzyMZoh-jQg-3">
          <mxGeometry y="88" width="210" height="92" as="geometry" />
        </mxCell>
        <mxCell id="xa73Cc4ueUzyMZoh-jQg-7" value="MapperProxyFactory(class)&lt;div&gt;&lt;br&gt;&lt;/div&gt;" style="swimlane;fontStyle=1;align=center;verticalAlign=top;childLayout=stackLayout;horizontal=1;startSize=26;horizontalStack=0;resizeParent=1;resizeParentMax=0;resizeLast=0;collapsible=1;marginBottom=0;whiteSpace=wrap;html=1;" vertex="1" parent="1">
          <mxGeometry x="430" y="120" width="196" height="130" as="geometry" />
        </mxCell>
        <mxCell id="xa73Cc4ueUzyMZoh-jQg-8" value="+ mapperInterface: Class&amp;lt;T&amp;gt;" style="text;strokeColor=none;fillColor=none;align=left;verticalAlign=top;spacingLeft=4;spacingRight=4;overflow=hidden;rotatable=0;points=[[0,0.5],[1,0.5]];portConstraint=eastwest;whiteSpace=wrap;html=1;" vertex="1" parent="xa73Cc4ueUzyMZoh-jQg-7">
          <mxGeometry y="26" width="196" height="34" as="geometry" />
        </mxCell>
        <mxCell id="xa73Cc4ueUzyMZoh-jQg-9" value="" style="line;strokeWidth=1;fillColor=none;align=left;verticalAlign=middle;spacingTop=-1;spacingLeft=3;spacingRight=3;rotatable=0;labelPosition=right;points=[];portConstraint=eastwest;strokeColor=inherit;" vertex="1" parent="xa73Cc4ueUzyMZoh-jQg-7">
          <mxGeometry y="60" width="196" height="8" as="geometry" />
        </mxCell>
        <mxCell id="xa73Cc4ueUzyMZoh-jQg-10" value="+ MapperProxyFactory(Class&amp;lt;T&amp;gt;)&lt;div&gt;+ newInstance(Map): T&lt;/div&gt;" style="text;strokeColor=none;fillColor=none;align=left;verticalAlign=top;spacingLeft=4;spacingRight=4;overflow=hidden;rotatable=0;points=[[0,0.5],[1,0.5]];portConstraint=eastwest;whiteSpace=wrap;html=1;" vertex="1" parent="xa73Cc4ueUzyMZoh-jQg-7">
          <mxGeometry y="68" width="196" height="62" as="geometry" />
        </mxCell>
        <mxCell id="xa73Cc4ueUzyMZoh-jQg-14" value="&lt;div style=&quot;background-color:#2b2b2b;color:#a9b7c6&quot;&gt;&lt;pre style=&quot;font-family:&#39;JetBrains Mono&#39;,monospace;font-size:10.5pt;&quot;&gt;MapperProxyFactory&amp;lt;IUserDao&amp;gt; factory = &lt;span style=&quot;color:#cc7832;&quot;&gt;new &lt;/span&gt;MapperProxyFactory&amp;lt;&amp;gt;(IUserDao.&lt;span style=&quot;color:#cc7832;&quot;&gt;class&lt;/span&gt;)&lt;span style=&quot;color:#cc7832;&quot;&gt;;&lt;br&gt;&lt;/span&gt;Map&amp;lt;String&lt;span style=&quot;color:#cc7832;&quot;&gt;, &lt;/span&gt;String&amp;gt; sqlSession = &lt;span style=&quot;color:#cc7832;&quot;&gt;new &lt;/span&gt;HashMap&amp;lt;&amp;gt;()&lt;span style=&quot;color:#cc7832;&quot;&gt;;&lt;br&gt;&lt;/span&gt;&lt;span style=&quot;color:#cc7832;&quot;&gt;&lt;br&gt;&lt;/span&gt;sqlSession.put(&lt;span style=&quot;color:#6a8759;&quot;&gt;&quot;com.pyip.mybatis.test.dao.IUserDao.queryUserName&quot;&lt;/span&gt;&lt;span style=&quot;color:#cc7832;&quot;&gt;,&lt;br&gt;&lt;/span&gt;&lt;span style=&quot;color:#cc7832;&quot;&gt;        &lt;/span&gt;&lt;span style=&quot;color:#6a8759;&quot;&gt;&quot;&lt;/span&gt;&lt;span style=&quot;color:#6a8759;font-family:&#39;宋体&#39;,monospace;&quot;&gt;模拟执行&lt;/span&gt;&lt;span style=&quot;color:#6a8759;&quot;&gt;Mapper.xml&lt;/span&gt;&lt;span style=&quot;color:#6a8759;font-family:&#39;宋体&#39;,monospace;&quot;&gt;中&lt;/span&gt;&lt;span style=&quot;color:#6a8759;&quot;&gt;SQL&lt;/span&gt;&lt;span style=&quot;color:#6a8759;font-family:&#39;宋体&#39;,monospace;&quot;&gt;语句的操作：查询用户姓名&lt;/span&gt;&lt;span style=&quot;color:#6a8759;&quot;&gt;&quot;&lt;/span&gt;)&lt;span style=&quot;color:#cc7832;&quot;&gt;;&lt;br&gt;&lt;/span&gt;sqlSession.put(&lt;span style=&quot;color:#6a8759;&quot;&gt;&quot;com.pyip.mybatis.test.dao.IUserDao.queryUserAge&quot;&lt;/span&gt;&lt;span style=&quot;color:#cc7832;&quot;&gt;,&lt;br&gt;&lt;/span&gt;&lt;span style=&quot;color:#cc7832;&quot;&gt;        &lt;/span&gt;&lt;span style=&quot;color:#6a8759;&quot;&gt;&quot;&lt;/span&gt;&lt;span style=&quot;color:#6a8759;font-family:&#39;宋体&#39;,monospace;&quot;&gt;模拟执行&lt;/span&gt;&lt;span style=&quot;color:#6a8759;&quot;&gt;Mapper.xml&lt;/span&gt;&lt;span style=&quot;color:#6a8759;font-family:&#39;宋体&#39;,monospace;&quot;&gt;中&lt;/span&gt;&lt;span style=&quot;color:#6a8759;&quot;&gt;SQL&lt;/span&gt;&lt;span style=&quot;color:#6a8759;font-family:&#39;宋体&#39;,monospace;&quot;&gt;语句的操作：查询用户年龄&lt;/span&gt;&lt;span style=&quot;color:#6a8759;&quot;&gt;&quot;&lt;/span&gt;)&lt;span style=&quot;color:#cc7832;&quot;&gt;;&lt;br&gt;&lt;/span&gt;&lt;span style=&quot;color:#808080;&quot;&gt;// &lt;/span&gt;&lt;span style=&quot;color:#808080;font-family:&#39;宋体&#39;,monospace;&quot;&gt;通过代理工厂生成指定&lt;/span&gt;&lt;span style=&quot;color:#808080;&quot;&gt;T(IUserDao)&lt;/span&gt;&lt;span style=&quot;color:#808080;font-family:&#39;宋体&#39;,monospace;&quot;&gt;对象&lt;br&gt;&lt;/span&gt;IUserDao userDao = factory.newInstance(sqlSession)&lt;span style=&quot;color:#cc7832;&quot;&gt;;&lt;br&gt;&lt;/span&gt;&lt;span style=&quot;color:#cc7832;&quot;&gt;&lt;br&gt;&lt;/span&gt;String res = userDao.queryUserName(&lt;span style=&quot;color:#6a8759;&quot;&gt;&quot;10001&quot;&lt;/span&gt;)&lt;span style=&quot;color:#cc7832;&quot;&gt;; &lt;/span&gt;&lt;span style=&quot;color:#808080;&quot;&gt;// &lt;/span&gt;&lt;span style=&quot;color:#808080;font-family:&#39;宋体&#39;,monospace;&quot;&gt;执行代理类的&lt;/span&gt;&lt;span style=&quot;color:#808080;&quot;&gt;invoke&lt;/span&gt;&lt;span style=&quot;color:#808080;font-family:&#39;宋体&#39;,monospace;&quot;&gt;方法&lt;br&gt;&lt;/span&gt;&lt;span style=&quot;color:#9876aa;&quot;&gt;logger&lt;/span&gt;.info(&lt;span style=&quot;color:#6a8759;&quot;&gt;&quot;&lt;/span&gt;&lt;span style=&quot;color:#6a8759;font-family:&#39;宋体&#39;,monospace;&quot;&gt;测试结果：&lt;/span&gt;&lt;span style=&quot;color:#6a8759;&quot;&gt;{}&quot;&lt;/span&gt;&lt;span style=&quot;color:#cc7832;&quot;&gt;,&lt;/span&gt;res)&lt;span style=&quot;color:#cc7832;&quot;&gt;;&lt;/span&gt;&lt;/pre&gt;&lt;/div&gt;" style="text;html=1;align=center;verticalAlign=middle;whiteSpace=wrap;rounded=0;" vertex="1" parent="1">
          <mxGeometry x="340" y="400" width="60" height="30" as="geometry" />
        </mxCell>
        <mxCell id="xa73Cc4ueUzyMZoh-jQg-15" value="&lt;font color=&quot;#ff3333&quot;&gt;生成IUserDao类的代理工厂，通过工厂实例化被代理类IUserDao的代理类MapperProxy，使用代理对象调用方法即使用代理类的invoke方法，res返回值即为invoke方法调用的返回值&lt;/font&gt;" style="text;html=1;align=center;verticalAlign=middle;whiteSpace=wrap;rounded=0;" vertex="1" parent="1">
          <mxGeometry x="135" y="60" width="470" height="50" as="geometry" />
        </mxCell>
      </root>
    </mxGraphModel>
  </diagram>
</mxfile>
